%TF.GenerationSoftware,KiCad,Pcbnew,(6.0.5)*%
%TF.CreationDate,2022-07-22T15:05:17-04:00*%
%TF.ProjectId,circle_clock_design,63697263-6c65-45f6-936c-6f636b5f6465,rev?*%
%TF.SameCoordinates,PX56cacc8PY97b5f08*%
%TF.FileFunction,Soldermask,Top*%
%TF.FilePolarity,Negative*%
%FSLAX46Y46*%
G04 Gerber Fmt 4.6, Leading zero omitted, Abs format (unit mm)*
G04 Created by KiCad (PCBNEW (6.0.5)) date 2022-07-22 15:05:17*
%MOMM*%
%LPD*%
G01*
G04 APERTURE LIST*
G04 Aperture macros list*
%AMRoundRect*
0 Rectangle with rounded corners*
0 $1 Rounding radius*
0 $2 $3 $4 $5 $6 $7 $8 $9 X,Y pos of 4 corners*
0 Add a 4 corners polygon primitive as box body*
4,1,4,$2,$3,$4,$5,$6,$7,$8,$9,$2,$3,0*
0 Add four circle primitives for the rounded corners*
1,1,$1+$1,$2,$3*
1,1,$1+$1,$4,$5*
1,1,$1+$1,$6,$7*
1,1,$1+$1,$8,$9*
0 Add four rect primitives between the rounded corners*
20,1,$1+$1,$2,$3,$4,$5,0*
20,1,$1+$1,$4,$5,$6,$7,0*
20,1,$1+$1,$6,$7,$8,$9,0*
20,1,$1+$1,$8,$9,$2,$3,0*%
G04 Aperture macros list end*
%ADD10C,3.200000*%
%ADD11C,2.000000*%
%ADD12R,1.600000X1.600000*%
%ADD13O,1.600000X1.600000*%
%ADD14R,1.600000X1.400000*%
%ADD15R,1.150000X1.400000*%
%ADD16R,1.000000X1.800000*%
%ADD17R,4.500000X2.000000*%
%ADD18RoundRect,0.243750X-0.243750X-0.456250X0.243750X-0.456250X0.243750X0.456250X-0.243750X0.456250X0*%
%ADD19RoundRect,0.500000X0.500000X-1.750000X0.500000X1.750000X-0.500000X1.750000X-0.500000X-1.750000X0*%
%ADD20RoundRect,0.500000X-1.500000X-0.500000X1.500000X-0.500000X1.500000X0.500000X-1.500000X0.500000X0*%
%ADD21R,2.200000X1.200000*%
%ADD22R,6.400000X5.800000*%
%ADD23R,1.400000X1.150000*%
%ADD24R,1.400000X1.400000*%
%ADD25C,1.400000*%
%ADD26R,1.700000X1.700000*%
%ADD27O,1.700000X1.700000*%
%ADD28R,3.000000X3.000000*%
%ADD29C,3.000000*%
G04 APERTURE END LIST*
D10*
%TO.C,H4*%
X4491800Y59080200D03*
%TD*%
D11*
%TO.C,TP14*%
X64389000Y28930600D03*
%TD*%
%TO.C,TP36*%
X92608400Y21310600D03*
%TD*%
D12*
%TO.C,U4*%
X80695800Y93792200D03*
D13*
X80695800Y91252200D03*
X80695800Y88712200D03*
X80695800Y86172200D03*
X88315800Y86172200D03*
X88315800Y88712200D03*
X88315800Y91252200D03*
X88315800Y93792200D03*
%TD*%
D14*
%TO.C,SW4*%
X85331800Y36870200D03*
X93331800Y36870200D03*
X85331800Y32370200D03*
X93331800Y32370200D03*
%TD*%
D15*
%TO.C,R11*%
X92711800Y42240200D03*
X94411800Y42240200D03*
%TD*%
D12*
%TO.C,U3*%
X42351800Y40980200D03*
D13*
X44891800Y40980200D03*
X47431800Y40980200D03*
X49971800Y40980200D03*
X52511800Y40980200D03*
X55051800Y40980200D03*
X57591800Y40980200D03*
X60131800Y40980200D03*
X62671800Y40980200D03*
X65211800Y40980200D03*
X67751800Y40980200D03*
X70291800Y40980200D03*
X72831800Y40980200D03*
X75371800Y40980200D03*
X75371800Y48600200D03*
X72831800Y48600200D03*
X70291800Y48600200D03*
X67751800Y48600200D03*
X65211800Y48600200D03*
X62671800Y48600200D03*
X60131800Y48600200D03*
X57591800Y48600200D03*
X55051800Y48600200D03*
X52511800Y48600200D03*
X49971800Y48600200D03*
X47431800Y48600200D03*
X44891800Y48600200D03*
X42351800Y48600200D03*
%TD*%
D15*
%TO.C,C6*%
X13184400Y36118800D03*
X14884400Y36118800D03*
%TD*%
D16*
%TO.C,Y2*%
X77921800Y100025200D03*
X80421800Y100025200D03*
%TD*%
D15*
%TO.C,C4*%
X51573800Y52908200D03*
X49873800Y52908200D03*
%TD*%
D11*
%TO.C,TP15*%
X100990400Y37236400D03*
%TD*%
D17*
%TO.C,Y1*%
X71991800Y34620200D03*
X63491800Y34620200D03*
%TD*%
D15*
%TO.C,R10*%
X59906800Y16205200D03*
X61606800Y16205200D03*
%TD*%
%TO.C,R7*%
X56653800Y27000200D03*
X54953800Y27000200D03*
%TD*%
D11*
%TO.C,TP21*%
X27330400Y42341800D03*
%TD*%
%TO.C,TP20*%
X31369000Y49555400D03*
%TD*%
%TO.C,TP10*%
X43637200Y13208000D03*
%TD*%
D18*
%TO.C,D1*%
X100664800Y43256200D03*
X102539800Y43256200D03*
%TD*%
D11*
%TO.C,TP8*%
X45974000Y27940000D03*
%TD*%
D14*
%TO.C,SW1*%
X24371800Y36870200D03*
X32371800Y36870200D03*
X24371800Y32370200D03*
X32371800Y32370200D03*
%TD*%
D15*
%TO.C,C11*%
X19901800Y44780200D03*
X21601800Y44780200D03*
%TD*%
D10*
%TO.C,H2*%
X113491800Y59080200D03*
%TD*%
D15*
%TO.C,C8*%
X37349800Y17348200D03*
X35649800Y17348200D03*
%TD*%
D14*
%TO.C,SW2*%
X42151800Y24170200D03*
X50151800Y24170200D03*
X42151800Y19670200D03*
X50151800Y19670200D03*
%TD*%
D10*
%TO.C,H3*%
X58991800Y4580200D03*
%TD*%
D14*
%TO.C,SW3*%
X67551800Y24170200D03*
X75551800Y24170200D03*
X67551800Y19670200D03*
X75551800Y19670200D03*
%TD*%
D15*
%TO.C,C2*%
X49365800Y82372200D03*
X51065800Y82372200D03*
%TD*%
D19*
%TO.C,J1*%
X63931800Y100660200D03*
D20*
X66231800Y95360200D03*
X69931800Y97860200D03*
%TD*%
D11*
%TO.C,TP2*%
X106172000Y57531000D03*
%TD*%
D15*
%TO.C,C10*%
X83069800Y40716200D03*
X81369800Y40716200D03*
%TD*%
D10*
%TO.C,H1*%
X58991800Y113580200D03*
%TD*%
D11*
%TO.C,TP6*%
X87045800Y98069400D03*
%TD*%
D15*
%TO.C,C14*%
X24649800Y77292200D03*
X22949800Y77292200D03*
%TD*%
D11*
%TO.C,TP24*%
X52832000Y103454200D03*
%TD*%
D21*
%TO.C,U2*%
X59306800Y87960200D03*
D22*
X65606800Y85680200D03*
D21*
X59306800Y83400200D03*
%TD*%
D23*
%TO.C,R1*%
X88823800Y61710200D03*
X88823800Y63410200D03*
%TD*%
D15*
%TO.C,R3*%
X29387800Y23444200D03*
X31087800Y23444200D03*
%TD*%
%TO.C,R8*%
X23633800Y67132200D03*
X21933800Y67132200D03*
%TD*%
%TO.C,C7*%
X82551800Y20904200D03*
X84251800Y20904200D03*
%TD*%
%TO.C,R4*%
X42761800Y54432200D03*
X44461800Y54432200D03*
%TD*%
%TO.C,R5*%
X30227800Y45796200D03*
X31927800Y45796200D03*
%TD*%
%TO.C,C3*%
X20917800Y56972200D03*
X22617800Y56972200D03*
%TD*%
%TO.C,R6*%
X90513800Y25984200D03*
X92213800Y25984200D03*
%TD*%
D11*
%TO.C,TP34*%
X30734000Y71882000D03*
%TD*%
D15*
%TO.C,C1*%
X21933800Y51892200D03*
X23633800Y51892200D03*
%TD*%
D24*
%TO.C,DS1*%
X51231800Y60020200D03*
D25*
X53771800Y60020200D03*
X56311800Y60020200D03*
X58851800Y60020200D03*
X61391800Y60020200D03*
X63931800Y60020200D03*
X66471800Y60020200D03*
X66471800Y75260200D03*
X63931800Y75260200D03*
X61391800Y75260200D03*
X58851800Y75260200D03*
X56311800Y75260200D03*
X53771800Y75260200D03*
X51231800Y75260200D03*
%TD*%
D15*
%TO.C,C13*%
X18035800Y38684200D03*
X19735800Y38684200D03*
%TD*%
D11*
%TO.C,TP5*%
X59486800Y104597200D03*
%TD*%
D12*
%TO.C,U1*%
X99999800Y50617200D03*
D13*
X99999800Y53157200D03*
X99999800Y55697200D03*
X99999800Y58237200D03*
X99999800Y60777200D03*
X99999800Y63317200D03*
X99999800Y65857200D03*
X99999800Y68397200D03*
X99999800Y70937200D03*
X99999800Y73477200D03*
X99999800Y76017200D03*
X99999800Y78557200D03*
X92379800Y78557200D03*
X92379800Y76017200D03*
X92379800Y73477200D03*
X92379800Y70937200D03*
X92379800Y68397200D03*
X92379800Y65857200D03*
X92379800Y63317200D03*
X92379800Y60777200D03*
X92379800Y58237200D03*
X92379800Y55697200D03*
X92379800Y53157200D03*
X92379800Y50617200D03*
%TD*%
D15*
%TO.C,C12*%
X29221800Y54432200D03*
X27521800Y54432200D03*
%TD*%
D11*
%TO.C,TP25*%
X50063400Y55651400D03*
%TD*%
D15*
%TO.C,C5*%
X82727800Y25984200D03*
X84427800Y25984200D03*
%TD*%
D11*
%TO.C,TP33*%
X46228000Y80060800D03*
%TD*%
D15*
%TO.C,R9*%
X23291800Y63068200D03*
X21591800Y63068200D03*
%TD*%
%TO.C,C9*%
X80187800Y34620200D03*
X81887800Y34620200D03*
%TD*%
D26*
%TO.C,J3*%
X85267800Y50876200D03*
D27*
X82727800Y50876200D03*
X85267800Y48336200D03*
X82727800Y48336200D03*
X85267800Y45796200D03*
X82727800Y45796200D03*
%TD*%
D28*
%TO.C,BT1*%
X52685486Y93040183D03*
D29*
X32195486Y93040183D03*
%TD*%
D26*
%TO.C,J2*%
X15036800Y68275200D03*
D27*
X15036800Y65735200D03*
X15036800Y63195200D03*
X15036800Y60655200D03*
X15036800Y58115200D03*
X15036800Y55575200D03*
%TD*%
M02*
